<svg width="405" height="57" viewBox="0 0 405 57" fill="none" xmlns="http://www.w3.org/2000/svg">
<path d="M16.686 46.756C13.77 46.756 11.196 46.234 8.964 45.19C6.732 44.146 4.986 42.652 3.726 40.708C2.466 38.764 1.836 36.424 1.836 33.688V32.176H8.856V33.688C8.856 35.956 9.558 37.666 10.962 38.818C12.366 39.934 14.274 40.492 16.686 40.492C19.134 40.492 20.952 40.006 22.14 39.034C23.364 38.062 23.976 36.82 23.976 35.308C23.976 34.264 23.67 33.418 23.058 32.77C22.482 32.122 21.618 31.6 20.466 31.204C19.35 30.772 17.982 30.376 16.362 30.016L15.12 29.746C12.528 29.17 10.296 28.45 8.424 27.586C6.588 26.686 5.166 25.516 4.158 24.076C3.186 22.636 2.7 20.764 2.7 18.46C2.7 16.156 3.24 14.194 4.32 12.574C5.436 10.918 6.984 9.658 8.964 8.794C10.98 7.894 13.338 7.444 16.038 7.444C18.738 7.444 21.132 7.912 23.22 8.848C25.344 9.748 27 11.116 28.188 12.952C29.412 14.752 30.024 17.02 30.024 19.756V21.376H23.004V19.756C23.004 18.316 22.716 17.164 22.14 16.3C21.6 15.4 20.808 14.752 19.764 14.356C18.72 13.924 17.478 13.708 16.038 13.708C13.878 13.708 12.276 14.122 11.232 14.95C10.224 15.742 9.72 16.84 9.72 18.244C9.72 19.18 9.954 19.972 10.422 20.62C10.926 21.268 11.664 21.808 12.636 22.24C13.608 22.672 14.85 23.05 16.362 23.374L17.604 23.644C20.304 24.22 22.644 24.958 24.624 25.858C26.64 26.758 28.206 27.946 29.322 29.422C30.438 30.898 30.996 32.788 30.996 35.092C30.996 37.396 30.402 39.43 29.214 41.194C28.062 42.922 26.406 44.29 24.246 45.298C22.122 46.27 19.602 46.756 16.686 46.756ZM111.416 46.432C109.328 46.432 107.492 45.964 105.908 45.028C104.36 44.056 103.154 42.724 102.29 41.032C101.426 39.34 100.994 37.396 100.994 35.2V19.216H107.798V34.66C107.798 36.676 108.284 38.188 109.256 39.196C110.264 40.204 111.686 40.708 113.522 40.708C115.61 40.708 117.23 40.024 118.382 38.656C119.534 37.252 120.11 35.308 120.11 32.824V19.216H126.914V46H120.218V42.49H119.246C118.814 43.39 118.004 44.272 116.816 45.136C115.628 46 113.828 46.432 111.416 46.432ZM146.905 46V19.216H153.601V22.726H154.573C155.005 21.79 155.815 20.908 157.003 20.08C158.191 19.216 159.991 18.784 162.403 18.784C164.491 18.784 166.309 19.27 167.857 20.242C169.441 21.178 170.665 22.492 171.529 24.184C172.393 25.84 172.825 27.784 172.825 30.016V46H166.021V30.556C166.021 28.54 165.517 27.028 164.509 26.02C163.537 25.012 162.133 24.508 160.297 24.508C158.209 24.508 156.589 25.21 155.437 26.614C154.285 27.982 153.709 29.908 153.709 32.392V46H146.905ZM203.401 46.756C201.277 46.756 199.279 46.234 197.407 45.19C195.571 44.11 194.095 42.544 192.979 40.492C191.863 38.44 191.305 35.956 191.305 33.04V32.176C191.305 29.26 191.863 26.776 192.979 24.724C194.095 22.672 195.571 21.124 197.407 20.08C199.243 19 201.241 18.46 203.401 18.46C205.021 18.46 206.371 18.658 207.451 19.054C208.567 19.414 209.467 19.882 210.151 20.458C210.835 21.034 211.357 21.646 211.717 22.294H212.689V8.2H219.493V46H212.797V42.76H211.825C211.213 43.768 210.259 44.686 208.963 45.514C207.703 46.342 205.849 46.756 203.401 46.756ZM205.453 40.816C207.541 40.816 209.287 40.15 210.691 38.818C212.095 37.45 212.797 35.47 212.797 32.878V32.338C212.797 29.746 212.095 27.784 210.691 26.452C209.323 25.084 207.577 24.4 205.453 24.4C203.365 24.4 201.619 25.084 200.215 26.452C198.811 27.784 198.109 29.746 198.109 32.338V32.878C198.109 35.47 198.811 37.45 200.215 38.818C201.619 40.15 203.365 40.816 205.453 40.816ZM252.362 46.756C249.446 46.756 246.872 46.234 244.64 45.19C242.408 44.146 240.662 42.652 239.402 40.708C238.142 38.764 237.512 36.424 237.512 33.688V32.176H244.532V33.688C244.532 35.956 245.234 37.666 246.638 38.818C248.042 39.934 249.95 40.492 252.362 40.492C254.81 40.492 256.628 40.006 257.816 39.034C259.04 38.062 259.652 36.82 259.652 35.308C259.652 34.264 259.346 33.418 258.734 32.77C258.158 32.122 257.294 31.6 256.142 31.204C255.026 30.772 253.658 30.376 252.038 30.016L250.796 29.746C248.204 29.17 245.972 28.45 244.1 27.586C242.264 26.686 240.842 25.516 239.834 24.076C238.862 22.636 238.376 20.764 238.376 18.46C238.376 16.156 238.916 14.194 239.996 12.574C241.112 10.918 242.66 9.658 244.64 8.794C246.656 7.894 249.014 7.444 251.714 7.444C254.414 7.444 256.808 7.912 258.896 8.848C261.02 9.748 262.676 11.116 263.864 12.952C265.088 14.752 265.7 17.02 265.7 19.756V21.376H258.68V19.756C258.68 18.316 258.392 17.164 257.816 16.3C257.276 15.4 256.484 14.752 255.44 14.356C254.396 13.924 253.154 13.708 251.714 13.708C249.554 13.708 247.952 14.122 246.908 14.95C245.9 15.742 245.396 16.84 245.396 18.244C245.396 19.18 245.63 19.972 246.098 20.62C246.602 21.268 247.34 21.808 248.312 22.24C249.284 22.672 250.526 23.05 252.038 23.374L253.28 23.644C255.98 24.22 258.32 24.958 260.3 25.858C262.316 26.758 263.882 27.946 264.998 29.422C266.114 30.898 266.672 32.788 266.672 35.092C266.672 37.396 266.078 39.43 264.89 41.194C263.738 42.922 262.082 44.29 259.922 45.298C257.798 46.27 255.278 46.756 252.362 46.756ZM284.624 56.8V19.216H291.32V22.456H292.292C292.904 21.412 293.858 20.494 295.154 19.702C296.45 18.874 298.304 18.46 300.716 18.46C302.876 18.46 304.874 19 306.71 20.08C308.546 21.124 310.022 22.672 311.138 24.724C312.254 26.776 312.812 29.26 312.812 32.176V33.04C312.812 35.956 312.254 38.44 311.138 40.492C310.022 42.544 308.546 44.11 306.71 45.19C304.874 46.234 302.876 46.756 300.716 46.756C299.096 46.756 297.728 46.558 296.612 46.162C295.532 45.802 294.65 45.334 293.966 44.758C293.318 44.146 292.796 43.534 292.4 42.922H291.428V56.8H284.624ZM298.664 40.816C300.788 40.816 302.534 40.15 303.902 38.818C305.306 37.45 306.008 35.47 306.008 32.878V32.338C306.008 29.746 305.306 27.784 303.902 26.452C302.498 25.084 300.752 24.4 298.664 24.4C296.576 24.4 294.83 25.084 293.426 26.452C292.022 27.784 291.32 29.746 291.32 32.338V32.878C291.32 35.47 292.022 37.45 293.426 38.818C294.83 40.15 296.576 40.816 298.664 40.816ZM394.002 46C392.238 46 390.798 45.46 389.682 44.38C388.602 43.264 388.062 41.788 388.062 39.952V24.832H381.366V19.216H388.062V10.9H394.866V19.216H402.21V24.832H394.866V38.764C394.866 39.844 395.37 40.384 396.378 40.384H401.562V46H394.002Z" fill="white"/>
<circle cx="65.5" cy="29.5" r="22.5" fill="#FFFEFE"/>
<circle cx="346.5" cy="29.5" r="22.5" fill="#BE1111"/>
<circle cx="65.5" cy="29.5" r="15.5" fill="black"/>
<circle cx="346.5" cy="29.5" r="15.5" fill="black"/>
<circle cx="65.5" cy="29.5" r="8.5" fill="white"/>
<path d="M355 29.5C355 34.1944 351.194 38 346.5 38C341.806 38 338 34.1944 338 29.5C338 24.8056 341.806 21 346.5 21C351.194 21 355 24.8056 355 29.5Z" fill="#BE1111"/>
</svg>
